<svg width="100" height="100" viewBox="0 0 100 100" fill="none" xmlns="http://www.w3.org/2000/svg">
<path d="M99.0391 12.3784C100.56 7.81202 100.276 4.29234 98.1814 1.81784C95.7081 -0.275524 92.188 -0.559937 87.621 0.959601C83.0545 2.48189 78.9636 5.05036 75.348 8.66551L63.9327 20.0828L16.4868 8.73774C15.7256 8.49956 15.0122 8.68975 14.3467 9.30806L5.21345 18.4415C4.69091 18.9654 4.47624 19.6074 4.5717 20.3685C4.7144 21.1305 5.11899 21.7005 5.78473 22.0814L42.0302 41.9894L23.5503 60.4708L9.70871 56.6899C9.61375 56.6419 9.42407 56.6179 9.13843 56.6179C8.47219 56.6179 7.92565 56.8316 7.49732 57.2602L0.648225 64.1811C0.17266 64.7507 -0.0410074 65.3458 0.0064742 65.9636C0.100938 66.7246 0.410068 67.2719 0.933864 67.6056L18.9134 81.0907L32.3979 99.0713C32.8262 99.5956 33.3973 99.9033 34.1107 100H34.2534C34.9197 100 35.4662 99.7863 35.8946 99.3587L42.7434 92.5098C43.3617 91.8427 43.5521 91.1055 43.3147 90.2969L39.5329 76.4542L58.0125 57.9715L77.9198 94.222C78.2046 94.8406 78.704 95.221 79.4179 95.3639C79.5599 95.4116 79.7266 95.4349 79.9175 95.4349C80.487 95.4349 80.9396 95.2919 81.2722 95.007L90.4067 88.1573C91.2138 87.4918 91.4995 86.7075 91.2628 85.8036L79.8473 36.1409L91.3346 24.6531C94.9487 21.0365 97.5169 16.9447 99.0391 12.3784Z" fill="#A4A9AD"/>
</svg>
