<svg width="120" height="100" viewBox="0 0 120 100" fill="none" xmlns="http://www.w3.org/2000/svg">
<path d="M60.0034 20.1869L17.2059 57.1324C17.2059 57.1845 17.1934 57.2612 17.1684 57.3658C17.1439 57.4695 17.1309 57.5449 17.1309 57.5984V95.0096C17.1309 96.3604 17.6025 97.5309 18.5454 98.5167C19.4881 99.503 20.6044 99.9993 21.8946 99.9993H50.4753V70.0695H69.5317V100H98.1121C99.4021 100 100.52 99.5052 101.461 98.5167C102.404 97.532 102.877 96.3606 102.877 95.0096V57.5984C102.877 57.3909 102.85 57.2342 102.802 57.1324L60.0034 20.1869Z" fill="#A4A9AD"/>
<path d="M119.172 48.7139L102.873 34.5287V2.72856C102.873 2.00158 102.65 1.40373 102.202 0.93582C101.757 0.468456 101.187 0.234774 100.491 0.234774H86.2001C85.5051 0.234774 84.9344 0.468456 84.4873 0.93582C84.0413 1.40373 83.8184 2.00186 83.8184 2.72856V17.9269L65.6574 2.02643C64.0713 0.675384 62.1854 0 60.0018 0C57.8184 0 55.9328 0.675384 54.3451 2.02643L0.827089 48.7139C0.330975 49.1289 0.0590637 49.6874 0.00848776 50.389C-0.0418275 51.0901 0.131539 51.7024 0.529108 52.2216L5.14377 57.9894C5.54134 58.4568 6.0617 58.7426 6.70694 58.8472C7.30264 58.8996 7.89834 58.7172 8.49404 58.3017L60.0002 13.3283L111.507 58.3014C111.905 58.664 112.425 58.845 113.07 58.845H113.294C113.938 58.7423 114.457 58.4546 114.857 57.9883L119.472 52.2213C119.869 51.701 120.043 51.0898 119.991 50.3879C119.94 49.6882 119.667 49.1297 119.172 48.7139Z" fill="#A4A9AD"/>
</svg>
